<svg width="300" height="300" viewBox="0 0 300 300" fill="none" xmlns="http://www.w3.org/2000/svg">
<rect width="300" height="300" rx="69" fill="white"/>
<path d="M184.394 44C154.377 52.1425 129.676 47.3927 121.077 44L133.585 116.03L72.6127 72.9685C72.6127 101.154 50.2042 123.337 39 130.905L111.697 152.827L39 184.145C66.1826 191.445 68.5014 213.948 67.9803 231.434L133.585 184.145L121.077 255C147.342 243.099 174.232 250.041 184.394 255L175.796 184.145L234.423 241.299C226.293 208.102 248.754 189.364 261 184.145L194.556 152.827C203.155 147.086 261 116.03 261 116.03C234.423 101.545 237.549 83.7207 234.423 67.0182L175.796 109.766L184.394 44Z" fill="black"/>
</svg>
